Patient4_TMGait_0pt7_01_left_12_EMG.mot
version=1
nRows=30
nColumns=33
inDegrees=no
endheader
time	1LAddLong	2LGlutMax	3LGlutMed	4LIliopsoas	5LSemiMemb	6LBicFemLong	7LRecFem	8LVastMed	9LVastLat	10LGasMed	11LTibAnt	12lTibPost	13LPeroneusLong	14LSol	15LExtDigLong	16LFlexDigLong	17RAddLong	18RGlutMax	19RGlutMed	20RIliopsoas	21RSemiMemb	22RBicFemLong	23RRecFem	24RVastMed	25RVastLat	26RGasMed	27RTibAnt	28RTibPost	29RPeroneusLong	30RSol	31RExtDigLong	32RFlexDigLong
13.79	-0.007019	0.21652	0.028687	0.021362	-0.009613	0.005646	0.037231	0.00412	0.13428	0.018158	0.006714	0.002899	-0.000763	-0.012817	0.2385	-0.016785	0.008545	-0.21759	0.08667	0.041809	-0.016937	0.49545	0.02655	-0.14313	-0.032043	-0.028534	-0.007782	0.042877	-0.7222	-0.24918	0.012054	-0.009918
13.791	-0.00061	0.22903	0.013275	0.018158	-0.009308	-0.014648	0.053253	0	0.17166	0.02243	0.048828	0.007324	-0.003204	-0.004883	0.19012	-0.016327	-0.016937	-0.19043	-0.1207	0.090027	0.023956	0.54016	-0.029449	-0.024414	0.002289	-0.025482	0.073853	0.044403	0.00885	-0.25665	0.002594	0.003204
13.792	-0.000305	0.29923	-0.015411	0.014191	-0.007172	-0.009155	0.048676	0.00946	0.18402	0.015564	0.095978	0.003815	0.03418	0.007782	-0.067749	-0.019073	-0.006561	-0.15442	-0.1973	0.099487	0.094147	0.18723	0.11185	0.046844	0.061188	0.01358	0.062103	0.010223	0.85312	-0.19409	0.004272	-0.006866
13.793	-0.002594	0.28366	-0.038605	0.009613	-0.014954	-0.018158	0.046539	0.002136	0.20416	0.018616	0.080261	0.001068	0.039063	0.017548	0.082855	-0.010681	0.003052	-0.11932	0.067444	0.048981	0.024567	0.13077	0.16937	-0.054169	0.002136	-0.002747	0.026093	-0.035248	0.30579	-0.18601	0.000153	-0.007324
13.794	0.00061	0.27298	-0.037689	0.016937	-0.013733	-0.039368	0.055695	0.008392	0.20172	0.041504	0.056915	-0.000916	-0.022125	0.033722	-0.087738	-0.007629	0.002747	-0.11292	0.17807	-0.065308	0.018768	-0.003052	0.18509	-0.050507	-0.0914	-0.052948	-0.001678	-0.01709	-0.08667	-0.11597	0	-0.013428
13.795	-0.003052	0.31052	-0.039368	0.021667	-0.009766	-0.032654	0.071716	0.014648	0.22308	0.028229	0.000763	-0.004272	-0.037079	0.045624	-0.11383	-0.016785	-0.007172	-0.12802	0.16357	-0.098572	0.009918	-0.003815	-0.044708	0.25559	-0.12985	-0.081177	0.005188	-0.009003	-0.46204	-0.1831	0.004578	-0.008087
13.796	-0.010986	0.29587	-0.037842	0.004272	-0.007935	-0.034943	0.058594	0.008087	0.23834	0.028076	0.11612	0.016479	-0.016479	0.059967	-0.078735	-0.006104	0.004883	-0.19012	-0.025024	-0.080261	-0.063477	0.049438	-0.13748	0.29968	-0.14786	-0.068359	-0.23682	-0.016022	0.27512	-0.2681	0.001678	-0.009613
13.797	-0.005188	0.28824	-0.024719	-0.001221	-0.008545	-0.02655	0.078888	0.014496	0.23834	-0.022888	0.019531	0.006714	0.10742	0.053558	-0.024872	0.000305	0.021973	-0.18646	0.039368	0.011292	-0.080566	-0.010986	-0.10208	0.25589	-0.16556	-0.17548	-0.21515	-0.024414	1.6356	-0.10574	0.00351	-0.004883
13.798	0.003967	0.31525	0.029144	0.000763	-0.011444	-0.033722	0.084686	0.011597	0.25223	-0.05127	-0.056305	0.002594	0.1062	0.031281	0.31693	-0.006561	0.05188	-0.1593	-0.3154	0.070038	-0.073395	-0.055542	0.007019	0.008698	-0.12116	-0.17258	0.032806	-0.023193	1.1896	-0.029449	0.002747	-0.001984
13.799	-0.003052	0.29098	0.007935	-0.004883	-0.012054	-0.023956	0.092926	-0.014954	0.25543	-0.031433	-0.069122	0.007172	0.079803	0.023956	0.21118	-0.011444	0.046997	-0.16937	-0.37247	0.088654	-0.048828	0.019684	0.028076	-0.45105	0.022583	-0.2475	0.12756	-0.021973	0.38849	0.001984	0.003204	0.002594
13.8	-0.007782	0.30991	0.11688	0.005341	-0.014954	-0.015564	0.075378	0.002747	0.25742	-0.039673	-0.11826	0.004578	0.19974	0.02655	-0.10162	-0.011597	0.041504	-0.071716	-0.31967	0.12299	-0.070038	0.035706	0.15198	-0.51727	0.03067	-0.16174	-0.018005	0.027466	-0.098419	0.14191	0.004578	0.005646
13.801	-0.010681	0.30243	0.13245	0.010834	-0.017395	-0.032349	0.072479	0.044861	0.26474	-0.029449	-0.13794	0.009308	0.16998	0.074921	-0.15198	-0.002747	0.021362	-0.13367	-0.71213	0.15366	-0.07019	-0.079041	0.17487	-0.63507	-0.017395	-0.000305	-0.16296	0.11337	-1.0849	0.013885	-0.000305	0.013275
13.802	-0.007477	0.28564	0.034943	0.01236	-0.048065	-0.028687	0.094147	0.01358	0.26245	-0.005798	-0.12634	0.003204	0.1091	0.053406	-0.10452	-0.002899	0.010376	-0.16312	-0.69046	0.10483	-0.11597	-0.096893	0.16357	-0.52506	-0.057678	0.097046	0.12009	0.056458	-2.5693	-0.055084	0.003815	-0.004883
13.803	-0.010681	0.29816	0.001221	0.01236	-0.067749	-0.017548	0.098572	0.007629	0.25497	0.00473	0.01297	-0.002441	0.055542	0.040741	-0.121	0.00824	0.004425	-0.17487	-0.54794	0.061798	-0.16434	-0.029907	-0.000153	-0.24796	-0.011292	0.04303	0.22278	-0.060577	-1.0756	-0.16968	0.010071	-0.001526
13.804	-0.023499	0.30563	0.024872	0.013275	-0.046997	-0.029602	0.13733	0.011902	0.25177	-0.008545	0.066833	0.002747	0.066223	0.018158	-0.00824	0.010529	0.001984	-0.16281	-0.3743	0.014343	-0.066681	0.10742	0.073395	-0.000305	-0.012665	0.15335	0.10574	-0.071564	-0.18799	0.042419	0.009308	0.005951
13.805	-0.007782	0.31052	0.013123	0.006714	-0.005646	-0.034943	0.10666	0.005035	0.26062	-0.017242	-0.031433	0.013275	0.074463	-0.025024	0.14282	0.007629	0.016937	-0.22125	0.85754	-0.042267	-0.011597	0.30868	0.30655	0.14069	-0.079193	0.21759	-0.014801	-0.059662	-0.8255	0.40787	0.006714	-0.002289
13.806	-0.002136	0.31876	-0.001221	-0.005493	0.023193	-0.053711	0.10971	0.004578	0.25421	-0.019379	-0.028992	0.005341	0.031738	-0.083923	0.15671	0.004883	0.024872	-0.24963	1.1664	-0.072632	-0.027161	0.29633	0.31555	0.16434	-0.10269	0.21118	0.13199	-0.004272	-0.17303	0.29953	0.005646	-0.007629
13.807	-0.000916	0.34088	-0.001526	-0.013733	0.004425	-0.076294	0.10803	0.004272	0.25269	-0.024719	-0.05127	0.008698	0.021362	-0.061493	0.041809	0.001678	0.024109	-0.2919	0.55023	-0.11765	-0.044861	0.23331	0.33066	-0.036163	-0.055847	0.15564	0.29282	0.029602	1.7972	0.13565	0.006866	-0.005035
13.808	0.003357	0.37094	-0.023193	0.000458	-0.049133	-0.088196	0.12787	0.007172	0.24506	-0.014038	-0.075378	0.00885	0.047913	-0.073242	-0.14923	0.00351	0.016327	-0.36728	-0.004883	-0.12238	-0.0383	0.079193	0.29694	-0.23193	-0.11093	0.092773	0.46722	0.12848	1.6005	0.053864	0.004578	0.000763
13.809	-0.000153	0.42023	-0.025177	0.027466	-0.016785	-0.080566	0.11902	0.011444	0.24612	-0.043793	-0.11276	0.005493	0.06485	-0.053101	0.14984	0.012207	-0.005341	-0.31937	-0.31281	-0.087433	-0.018463	-0.10971	-0.049438	-0.18601	-0.10651	0.063629	0.58456	0.015869	-1.5698	-0.14771	0.006866	-0.011139
13.81	-0.001068	0.43182	-0.024719	0.019226	0.024261	-0.055542	0.1355	0.009613	0.22461	-0.049744	-0.01709	0.006561	0.081482	-0.048523	0.07019	0.011597	0.00885	-0.25177	0.11719	-0.02243	-0.027008	-0.29388	-0.1741	-0.18951	-0.1738	0.042419	0.59052	-0.050049	-0.87784	0.023346	0.008392	-0.001678
13.811	-0.002136	0.41779	-0.026398	0.019836	0.027161	-0.042725	0.12894	0.012817	0.22629	-0.002136	0.053253	0.019989	0.031586	-0.020294	0.007172	0.00885	0.022736	-0.29404	0.083618	0.032043	-0.014801	-0.45456	-0.26825	-0.089874	-0.10742	0.035248	0.17441	-0.25299	1.0596	-0.32745	0.011597	-0.002289
13.812	-0.006104	0.41626	-0.031433	0.014496	-0.003662	-0.028229	0.13214	0.007172	0.22369	0.015106	-0.01236	0.00473	0.027924	-0.014343	0.01709	0.01358	0.039215	-0.32684	-0.062866	0.007935	0.001373	-0.43213	-0.38116	-0.10346	0.098114	0.034637	-0.016174	0.090179	0.026093	-0.68436	0.008545	-0.004578
13.813	-0.010529	0.40832	-0.034943	0.003357	-0.012207	-0.075989	0.11093	0.007629	0.23621	0.014801	-0.026093	0.006409	-0.043945	-0.039673	0.004272	0.02121	0.035095	-0.32455	-0.29495	-0.012207	-0.002136	-0.32196	-0.345	-0.17014	0.014496	0.029907	0.028381	0.2948	-0.076752	-0.40497	0.010529	-0.000916
13.814	-0.00412	0.3241	-0.05188	0.005951	-0.012817	-0.079498	0.1004	0.009766	0.22736	-0.051575	-0.10391	0.011292	-0.098572	-0.043945	-0.000916	0.013123	0.014343	-0.21301	-0.18845	-0.04364	-0.095367	-0.26428	-0.072479	-0.11444	0.048981	0.015564	0.079651	0.063324	0.003357	-0.25971	0.018921	-0.003052
13.815	-0.02533	-0.29862	-0.069122	0.002136	-0.001068	-0.063324	0.10941	0.003357	0.23697	-0.077515	-0.11215	0.00885	-0.075684	-0.022278	0.061493	0.018768	0.011139	-0.20126	-0.38589	-0.041809	-0.11322	-0.16327	-0.052795	-0.002441	0.17212	0.015869	-1.1761	0.005341	0.46356	-0.23895	0.00885	0.004578
13.816	0.064087	-0.84274	-0.064697	0.003357	-0.001526	-0.042419	0.10361	0.00412	0.2272	-0.084381	-0.043335	0.015411	-0.074921	0.016785	0.21316	0.031433	0.013428	-0.16403	-0.76904	-0.009918	-0.15228	-0.12756	-0.037079	0.070648	0.15533	-0.00061	-1.5549	0.00061	0.30167	-0.15015	0.014496	0.005341
13.817	-0.002747	-0.9436	-0.067139	0.000305	-0.008698	-0.003357	0.097046	0.007172	0.22751	-0.066528	-0.047607	0.016327	0.049286	0.021057	0.04715	0.026703	-0.012817	-0.25726	-0.29541	-0.028076	-0.33081	-0.093079	-0.096741	-0.037994	0.046234	0.007477	-0.92987	-0.011749	0.30777	-0.28244	0.010681	0.009613
13.818	0.011597	-0.91949	-0.055237	-0.010223	-0.012054	-0.001068	0.092163	0.004883	0.21698	-0.048676	0.001984	0.01358	0.2034	0.037689	0.17609	0.018768	-0.050964	-0.23025	0.16373	0.053253	-0.10788	-0.007324	-0.083008	-0.028534	-0.090179	-0.00473	-0.42297	-0.012665	0.33402	-0.20432	0.012665	0
13.819	0.044861	-0.89829	-0.056	0.00351	-0.014954	-0.016479	0.072479	0.007629	0.21759	0.005493	0.19547	0.013123	0.12451	0.049133	0.24185	0.017548	-0.078125	-0.224	0.96817	0.043335	0.055389	0.2861	-0.035095	0.14389	-0.087433	-0.012207	-0.10849	-0.01236	-1.046	-0.092926	0.01358	-0.001373
